# xmcd CD database file
#
# Track frame offsets:
#	150
#	53780
#	83052
#	126437
#	163922
#	196485
#	230820
#	260010
#
# Disc length: 4113 seconds
#
# Revision: 0
# Processed by: cddbd v1.5.2PL0 Copyright (c) Steve Scherf et al.
# Submitted via: CDex 1.51
#
DISCID=74100f08
DTITLE=Eric Clapton - Live in Concert
DYEAR=1900
DGENRE=Blues
TTITLE0=Old Love
TTITLE1=Badge
TTITLE2=Wonderful Tonight
TTITLE3=Tearing Us Apart
TTITLE4=Layla
TTITLE5=Crossroads
TTITLE6=Sunshine of Your Love
TTITLE7=Ferrone and Cooper's Drum Solo
EXTD=
EXTT0=
EXTT1=
EXTT2=
EXTT3=
EXTT4=
EXTT5=
EXTT6=
EXTT7=
PLAYORDER=
